{"title":"Comedy Nights With Kapil - 1st Feb - Hasee toh Phasee - Parineet","uid":9554229,"size":315596426,"categoryP":"video","categoryS":"tv_shows","magnet":"?xt=urn:btih:3c8af249766ce67e703cd7acba372bce9bb16851&amp;dn=Comedy+Nights+With+Kapil+-+1st+Feb+-+Hasee+toh+Phasee+-+Parineet&amp;tr=udp%3A%2F%2Ftracker.openbittorrent.com%3A80&amp;tr=udp%3A%2F%2Fopen.demonii.com%3A1337&amp;tr=udp%3A%2F%2Ftracker.coppersurfer.tk%3A6969&amp;tr=udp%3A%2F%2Fexodus.desync.com%3A6969","seeders":1,"leechers":0,"uploader":"ashish.p","files":1,"time":1391326211,"description":"General \n\nComplete name : Comedy Nights With Kapil - 1st Feb - Hasee toh Phasee - Parineeti - HQ 360p -AshishRocks- { DAKU RG }\nFormat : MPEG-4 \nFormat profile : Base Media / Version 2 \nCodec ID : mp42 \nFile size : 301 MiB \nDuration : 1h 4mn \nOverall bit rate mode : Variable \nOverall bit rate : 649 Kbps \nEncoded date : UTC 2014-01-31 20:35:06 \nTagged date : UTC 2014-01-31 20:35:06 \ngsst : 0 \ngstd : 3893150 \ngssd : BB64FFB0BHH1391315333861416 \ngshh : r8---sn-ci5gup-cvhl.googlevideo.com \n\nVideo \n\nID : 1 \nFormat : AVC \nFormat/Info : Advanced Video Codec \nFormat profile : &lt;a class=&quot;__cf_email__&quot; href=&quot;/cdn-cgi/l/email-protection&quot; data-cfemail=&quot;7d3f1c0e18111413183d314e534d&quot;&gt;[email&amp;#160;protected]&lt;/a&gt;&lt;script cf-hash='f9e31' type=&quot;text/javascript&quot;&gt;\n/* &lt;![CDATA[ */!function(){try{var t=&quot;currentScript&quot;in document?document.currentScript:function(){for(var t=document.getElementsByTagName(&quot;script&quot;),e=t.length;e--;)if(t[e].getAttribute(&quot;cf-hash&quot;))return t[e]}();if(t&amp;&amp;t.previousSibling){var e,r,n,i,c=t.previousSibling,a=c.getAttribute(&quot;data-cfemail&quot;);if(a){for(e=&quot;&quot;,r=parseInt(a.substr(0,2),16),n=2;a.length-n;n+=2)i=parseInt(a.substr(n,2),16)^r,e+=String.fromCharCode(i);e=document.createTextNode(e),c.parentNode.replaceChild(e,c)}}}catch(u){}}();/* ]]&gt; */&lt;/script&gt; \nFormat settings, CABAC : No \nFormat settings, ReFrames : 1 frame \nCodec ID : avc1 \nCodec ID/Info : Advanced Video Coding \nDuration : 1h 4mn \nBit rate : 550 Kbps \nMaximum bit rate : 1 213 Kbps \nWidth : 640 pixels \nHeight : 360 pixels \nDisplay aspect ratio : 16:9 \nFrame rate mode : Constant \nFrame rate : 25.000 fps \nColor space : YUV \nChroma subsampling : 4:2:0 \nBit depth : 8 bits \nScan type : Progressive \nBits/(Pixel*Frame) : 0.095 \nStream size : 255 MiB (85%) \nTagged date : UTC 2014-01-31 20:35:31 \n\nAudio \n\nID : 2 \nFormat : AAC \nFormat/Info : Advanced Audio Codec \nFormat profile : LC \nCodec ID : 40 \nDuration : 1h 4mn \nBit rate mode : Variable \nBit rate : 96.0 Kbps \nMaximum bit rate : 102 Kbps \nChannel(s) : 2 channels \nChannel positions : Front: L R \nSampling rate : 44.1 KHz \nCompression mode : Lossy \nStream size : 44.6 MiB (15%) \nTitle : IsoMedia File Produced by Google, 5-11-2011 \nEncoded date : UTC 2014-01-31 20:35:22 \nTagged date : UTC 2014-01-31 20:35:31 \n","torrent":{"xt":"urn:btih:3c8af249766ce67e703cd7acba372bce9bb16851","amp;dn":"Comedy+Nights+With+Kapil+-+1st+Feb+-+Hasee+toh+Phasee+-+Parineet","amp;tr":["udp%3A%2F%2Ftracker.openbittorrent.com%3A80","udp%3A%2F%2Fopen.demonii.com%3A1337","udp%3A%2F%2Ftracker.coppersurfer.tk%3A6969","udp%3A%2F%2Fexodus.desync.com%3A6969"],"infoHash":"3c8af249766ce67e703cd7acba372bce9bb16851","infoHashBuffer":{"type":"Buffer","data":[60,138,242,73,118,108,230,126,112,60,215,172,186,55,43,206,155,177,104,81]},"announce":[],"urlList":[]}}